<?xml version="1.0" standalone="no"?>
<!DOCTYPE svg PUBLIC "-//W3C//DTD SVG 20010904//EN"
 "http://www.w3.org/TR/2001/REC-SVG-20010904/DTD/svg10.dtd">
<svg version="1.0" xmlns="http://www.w3.org/2000/svg"
 width="658.000000pt" height="658.000000pt" viewBox="0 0 658.000000 658.000000"
 preserveAspectRatio="xMidYMid meet">
<metadata>
Created by potrace 1.14, written by Peter Selinger 2001-2017
</metadata>
<g transform="translate(0.000000,658.000000) scale(0.100000,-0.100000)"
fill="#000000" stroke="none">
<path d="M4555 6320 c3 -5 8 -10 11 -10 2 0 4 5 4 10 0 6 -5 10 -11 10 -5 0
-7 -4 -4 -10z"/>
<path d="M4584 6319 c-3 -5 9 -10 25 -10 17 -1 34 -2 39 -3 4 -1 43 -10 87
-20 44 -10 86 -23 93 -28 6 -6 12 -8 12 -5 0 9 143 -49 242 -98 262 -130 485
-325 643 -560 110 -164 183 -341 226 -548 17 -79 22 -140 23 -267 1 -196 -5
-255 -44 -403 -106 -409 -350 -755 -750 -1060 -131 -100 -381 -237 -570 -312
-52 -21 -100 -43 -106 -49 -6 -6 -37 -103 -69 -216 -32 -113 -79 -279 -105
-370 -26 -91 -46 -166 -45 -168 3 -3 235 84 310 116 87 37 345 171 435 226
283 173 571 419 759 650 240 294 427 681 486 1006 4 19 8 42 10 50 3 14 12 81
20 145 6 44 6 316 1 345 -3 14 -7 45 -10 70 -37 281 -156 570 -334 809 -264
352 -693 612 -1132 685 -116 20 -238 27 -246 15z"/>
<path d="M3357 6274 c-1 -1 -42 -5 -92 -8 -49 -3 -101 -8 -115 -10 -31 -5
-118 -18 -145 -22 -121 -15 -363 -73 -530 -125 -319 -101 -668 -266 -945 -447
-93 -61 -330 -236 -370 -274 -14 -13 -43 -38 -65 -57 -22 -18 -76 -68 -120
-111 -365 -352 -636 -753 -813 -1200 -49 -126 -126 -358 -113 -344 5 5 14 27
21 49 34 110 155 370 241 520 296 515 755 968 1288 1270 353 199 782 359 1128
420 48 8 99 17 113 20 14 3 43 7 65 10 22 3 61 7 86 11 91 11 147 14 319 15
202 0 320 -10 515 -46 60 -11 212 -57 300 -91 301 -116 544 -333 660 -589 107
-235 103 -521 -10 -762 -139 -296 -447 -574 -796 -718 -35 -14 -77 -32 -94
-40 -16 -8 -31 -12 -33 -10 -2 2 3 25 11 52 8 26 22 73 30 103 9 30 32 107 51
170 18 63 33 116 31 118 -2 3 -176 -72 -310 -133 -16 -8 -149 -66 -295 -130
-146 -64 -268 -119 -272 -123 -3 -4 -9 -25 -12 -47 -9 -69 -18 -139 -21 -165
-6 -52 -16 -136 -20 -160 -2 -14 -7 -50 -11 -80 -3 -30 -8 -66 -10 -80 -1 -14
-5 -50 -8 -80 -3 -30 -8 -66 -11 -80 -3 -14 -7 -50 -10 -81 -3 -31 -7 -65 -10
-77 -2 -11 -6 -47 -10 -79 -3 -32 -8 -69 -10 -83 -2 -14 -7 -50 -10 -80 -4
-30 -9 -71 -12 -90 -2 -19 -6 -48 -8 -65 -4 -47 -17 -148 -21 -168 -2 -10 -6
-46 -9 -80 -6 -68 -11 -59 94 -172 20 -22 77 -85 126 -140 49 -55 106 -118
126 -140 82 -88 83 -91 80 -176 -1 -43 -3 -86 -5 -96 -2 -10 -7 -76 -11 -148
-3 -71 -8 -146 -10 -165 -2 -19 -6 -93 -10 -165 -4 -71 -8 -143 -10 -160 -2
-16 -6 -84 -10 -150 -3 -66 -8 -140 -10 -165 -2 -25 -7 -99 -10 -165 -4 -66
-9 -128 -12 -139 -3 -12 -1 -16 6 -12 9 6 24 48 36 106 2 8 97 339 210 735
113 396 213 744 220 774 l15 54 -130 208 c-72 115 -130 216 -130 226 0 26 177
635 187 643 4 3 35 14 68 24 299 89 704 303 912 480 367 313 574 648 642 1036
18 103 22 340 7 431 -82 506 -447 922 -981 1122 -93 35 -282 84 -375 97 -41 6
-86 13 -100 16 -67 11 -464 26 -473 18z"/>
<path d="M2646 4863 c-1 -1 -24 -5 -51 -8 -190 -24 -385 -62 -570 -110 -545
-142 -1009 -388 -1337 -708 -333 -326 -523 -701 -572 -1129 -13 -110 -14 -317
-2 -408 23 -172 53 -301 101 -443 39 -117 89 -236 80 -192 -52 244 -63 334
-64 525 -1 160 4 220 33 370 6 34 19 80 47 168 144 453 499 814 1009 1025 82
34 289 102 340 111 14 3 35 7 48 10 12 4 31 8 43 11 11 2 28 6 37 9 9 3 37 8
62 11 25 3 52 8 60 10 71 19 335 39 533 40 140 0 168 2 171 15 4 13 14 97 21
175 1 11 5 38 8 60 3 22 9 63 12 90 3 28 10 79 15 114 5 35 8 67 8 70 -1 3 1
24 5 46 3 22 9 63 12 90 6 49 5 50 -20 50 -15 0 -28 -1 -29 -2z"/>
<path d="M6499 4154 c-2 -71 -17 -267 -24 -317 -6 -38 -24 -158 -30 -205 -3
-17 -23 -101 -45 -185 -41 -153 -42 -160 -53 -187 -3 -8 -18 -49 -33 -90 -114
-313 -339 -632 -604 -854 -335 -281 -821 -489 -1339 -572 -18 -3 -43 -8 -55
-10 -11 -2 -41 -7 -66 -10 -65 -8 -104 -15 -107 -18 -2 -1 -45 -150 -96 -330
-73 -254 -90 -325 -78 -322 9 3 32 7 51 11 75 14 342 88 475 132 387 126 720
289 1005 493 374 267 664 618 832 1005 36 85 86 217 92 248 3 12 14 56 25 97
12 41 25 100 31 130 5 30 12 64 14 76 2 12 7 45 11 75 3 30 8 65 10 79 16 112
24 505 11 595 -2 17 -7 64 -11 105 -7 79 -14 103 -16 54z"/>
<path d="M2430 3853 c-58 -7 -257 -35 -285 -39 -201 -34 -492 -127 -685 -221
-81 -39 -252 -138 -285 -165 -5 -5 -41 -32 -80 -60 -99 -73 -273 -249 -335
-338 -13 -19 -27 -37 -30 -40 -14 -11 -112 -181 -141 -245 -44 -98 -85 -228
-105 -336 -23 -126 -23 -380 0 -458 3 -9 7 -27 10 -41 18 -108 99 -281 194
-415 74 -103 265 -295 368 -368 251 -178 548 -294 849 -332 28 -4 61 -9 75
-12 14 -3 129 -7 255 -8 177 -1 255 2 340 15 l110 18 -90 1 c-382 8 -736 87
-1000 225 -121 62 -152 81 -242 148 -170 127 -319 300 -412 478 -80 154 -102
238 -102 385 0 371 243 720 636 914 105 52 259 111 327 125 13 3 34 7 48 10
14 3 36 8 50 11 42 9 63 12 120 20 30 3 69 9 85 12 17 2 109 6 205 8 l175 3 6
38 c4 22 9 64 13 94 7 64 25 212 31 255 2 17 7 56 10 88 4 32 8 66 10 75 1 9
6 46 10 82 4 36 9 69 12 73 4 7 -88 7 -147 0z"/>
</g>
</svg>
